<svg width="22" height="22" viewBox="0 0 22 22" fill="none" xmlns="http://www.w3.org/2000/svg">
<path id="search" d="M21.6448 19.122L15.6442 13.1214C16.7209 11.4119 17.13 9.36566 16.7932 7.37364C16.4564 5.38162 15.3974 3.58354 13.8186 2.32305C12.2397 1.06255 10.2518 0.428034 8.23464 0.540761C6.2175 0.653487 4.31262 1.50555 2.88406 2.93411C1.4555 4.36267 0.603438 6.26755 0.490712 8.28469C0.377986 10.3018 1.0125 12.2898 2.273 13.8686C3.53349 15.4475 5.33157 16.5065 7.32359 16.8432C9.31561 17.18 11.3619 16.7709 13.0713 15.6942L19.072 21.6949C19.1565 21.7793 19.2568 21.8464 19.3672 21.8921C19.4775 21.9378 19.5958 21.9613 19.7153 21.9613C19.8348 21.9613 19.953 21.9378 20.0634 21.8921C20.1738 21.8464 20.2741 21.7793 20.3585 21.6949L21.6448 20.4084C21.8154 20.2378 21.9113 20.0064 21.9113 19.7652C21.9112 19.5239 21.8154 19.2926 21.6448 19.122ZM8.72089 14.2291C7.64137 14.2291 6.5861 13.9089 5.68852 13.3092C4.79093 12.7095 4.09135 11.857 3.67824 10.8597C3.26513 9.86233 3.15704 8.76488 3.36764 7.70611C3.57824 6.64734 4.09808 5.67479 4.86141 4.91146C5.62475 4.14813 6.59729 3.62829 7.65606 3.41769C8.71484 3.20709 9.81228 3.31518 10.8096 3.72829C11.807 4.1414 12.6594 4.84098 13.2592 5.73857C13.8589 6.63615 14.179 7.69142 14.179 8.77094C14.1774 10.218 13.6019 11.6054 12.5786 12.6287C11.5554 13.6519 10.168 14.2275 8.72089 14.2291Z" fill="#01B4E4"/>
</svg>
